<?xml version="1.0" encoding="utf-8"?>
<!-- Generator: Adobe Illustrator 25.2.1, SVG Export Plug-In . SVG Version: 6.00 Build 0)  -->
<svg version="1.1" id="Warstwa_1" xmlns:svgjs="http://svgjs.com/svgjs"
	 xmlns="http://www.w3.org/2000/svg" xmlns:xlink="http://www.w3.org/1999/xlink" x="0px" y="0px" viewBox="0 0 512 512"
	 style="enable-background:new 0 0 512 512;" xml:space="preserve">
<style type="text/css">
	.st0{fill:#FFFFFF;}
</style>
<g>
	<path class="st0" d="M491.2,239.8c-3.8,0-6.9,1.7-6.9,3.8v24.7c0,2.1,3.1,3.8,6.9,3.8s6.9-1.7,6.9-3.8v-24.7
		C498.2,241.5,495.1,239.8,491.2,239.8z"/>
	<path class="st0" d="M422.4,239.8c-3.8,0-6.9,1.7-6.9,3.8v24.7c0,2.1,3.1,3.8,6.9,3.8s6.9-1.7,6.9-3.8v-24.7
		C429.4,241.5,426.3,239.8,422.4,239.8z"/>
	<path class="st0" d="M456.8,222.6c-3.8,0-6.9,1.7-6.9,3.8v59.1c0,2.1,3.1,3.8,6.9,3.8s6.9-1.7,6.9-3.8v-59.1
		C463.8,224.3,460.7,222.6,456.8,222.6z"/>
	<path class="st0" d="M204.4,239.8c-3.8,0-6.9,1.7-6.9,3.8v24.7c0,2.1,3.1,3.8,6.9,3.8c3.8,0,6.9-1.7,6.9-3.8v-24.7
		C211.3,241.5,208.2,239.8,204.4,239.8z"/>
	<path class="st0" d="M353.6,194.4c-3.8,0-6.9,1.7-6.9,3.8v115.5c0,2.1,3.1,3.8,6.9,3.8s6.9-1.7,6.9-3.8V198.3
		C360.6,196.2,357.5,194.4,353.6,194.4z"/>
	<path class="st0" d="M388,206.8c-3.8,0-6.9,1.7-6.9,3.8v90.7c0,2.1,3.1,3.8,6.9,3.8s6.9-1.7,6.9-3.8v-90.7
		C395,208.5,391.9,206.8,388,206.8z"/>
	<path class="st0" d="M273.2,194.4c-3.8,0-6.9,1.7-6.9,3.8v115.5c0,2.1,3.1,3.8,6.9,3.8s6.9-1.7,6.9-3.8V198.3
		C280.1,196.2,277,194.4,273.2,194.4z"/>
	<path class="st0" d="M238.8,206.8c-3.8,0-6.9,1.7-6.9,3.8v90.7c0,2.1,3.1,3.8,6.9,3.8s6.9-1.7,6.9-3.8v-90.7
		C245.7,208.5,242.6,206.8,238.8,206.8z"/>
	<path class="st0" d="M313.4,167.6c-3.8,0-6.9,1.7-6.9,3.8v169.1c0,2.1,3.1,3.8,6.9,3.8s6.9-1.7,6.9-3.8V171.4
		C320.3,169.3,317.2,167.6,313.4,167.6z"/>
	<path class="st0" d="M55.2,210.9c-3.8,0-6.9,1.7-6.9,3.8v82.4c0,2.1,3.1,3.8,6.9,3.8c3.8,0,6.9-1.7,6.9-3.8v-82.4
		C62.1,212.6,59,210.9,55.2,210.9z"/>
	<path class="st0" d="M20.8,229.1c-3.8,0-6.9,1.7-6.9,3.8v46c0,2.1,3.1,3.8,6.9,3.8s6.9-1.7,6.9-3.8v-46
		C27.7,230.8,24.6,229.1,20.8,229.1z"/>
	<path class="st0" d="M135.6,210.9c-3.8,0-6.9,1.7-6.9,3.8v82.4c0,2.1,3.1,3.8,6.9,3.8c3.8,0,6.9-1.7,6.9-3.8v-82.4
		C142.5,212.6,139.4,210.9,135.6,210.9z"/>
	<path class="st0" d="M170,229.1c-3.8,0-6.9,1.7-6.9,3.8v46c0,2.1,3.1,3.8,6.9,3.8c3.8,0,6.9-1.7,6.9-3.8v-46
		C176.9,230.8,173.8,229.1,170,229.1z"/>
	<path class="st0" d="M95.4,194.4c-3.8,0-6.9,1.7-6.9,3.8v115.5c0,2.1,3.1,3.8,6.9,3.8s6.9-1.7,6.9-3.8V198.3
		C102.3,196.2,99.2,194.4,95.4,194.4z"/>
</g>
</svg>
