<?xml version="1.0" encoding="utf-8"?>
<!-- Generator: Adobe Illustrator 25.2.1, SVG Export Plug-In . SVG Version: 6.00 Build 0)  -->
<svg version="1.1" id="Warstwa_1" xmlns:svgjs="http://svgjs.com/svgjs"
	 xmlns="http://www.w3.org/2000/svg" xmlns:xlink="http://www.w3.org/1999/xlink" x="0px" y="0px" viewBox="0 0 512 512"
	 style="enable-background:new 0 0 512 512;" xml:space="preserve">
<style type="text/css">
	.st0{fill:#FFFFFF;}
</style>
<g>
	<path class="st0" d="M491.2,226.9c-3.8,0-6.9,3.1-6.9,6.9v44.4c0,3.8,3.1,6.9,6.9,6.9c3.8,0,6.9-3.1,6.9-6.9v-44.4
		C498.2,230,495.1,226.9,491.2,226.9z"/>
	<path class="st0" d="M422.4,226.9c-3.8,0-6.9,3.1-6.9,6.9v44.4c0,3.8,3.1,6.9,6.9,6.9s6.9-3.1,6.9-6.9v-44.4
		C429.4,230,426.3,226.9,422.4,226.9z"/>
	<path class="st0" d="M456.8,196c-3.8,0-6.9,3.1-6.9,6.9v106.2c0,3.8,3.1,6.9,6.9,6.9c3.8,0,6.9-3.1,6.9-6.9V202.9
		C463.8,199.1,460.7,196,456.8,196z"/>
	<path class="st0" d="M204.4,226.9c-3.8,0-6.9,3.1-6.9,6.9v44.4c0,3.8,3.1,6.9,6.9,6.9c3.8,0,6.9-3.1,6.9-6.9v-44.4
		C211.3,230,208.2,226.9,204.4,226.9z"/>
	<path class="st0" d="M353.6,145.4c-3.8,0-6.9,3.1-6.9,6.9v207.5c0,3.8,3.1,6.9,6.9,6.9c3.8,0,6.9-3.1,6.9-6.9V152.3
		C360.6,148.5,357.5,145.4,353.6,145.4z"/>
	<path class="st0" d="M388,167.6c-3.8,0-6.9,3.1-6.9,6.9v163c0,3.8,3.1,6.9,6.9,6.9s6.9-3.1,6.9-6.9v-163
		C395,170.7,391.9,167.6,388,167.6z"/>
	<path class="st0" d="M273.2,145.4c-3.8,0-6.9,3.1-6.9,6.9v207.5c0,3.8,3.1,6.9,6.9,6.9s6.9-3.1,6.9-6.9V152.3
		C280.1,148.5,277,145.4,273.2,145.4z"/>
	<path class="st0" d="M238.8,167.6c-3.8,0-6.9,3.1-6.9,6.9v163c0,3.8,3.1,6.9,6.9,6.9s6.9-3.1,6.9-6.9v-163
		C245.7,170.7,242.6,167.6,238.8,167.6z"/>
	<path class="st0" d="M313.4,97.2c-3.8,0-6.9,3.1-6.9,6.9v303.8c0,3.8,3.1,6.9,6.9,6.9c3.8,0,6.9-3.1,6.9-6.9V104.1
		C320.3,100.3,317.2,97.2,313.4,97.2z"/>
	<path class="st0" d="M55.2,175c-3.8,0-6.9,3.1-6.9,6.9v148.1c0,3.8,3.1,6.9,6.9,6.9c3.8,0,6.9-3.1,6.9-6.9V181.9
		C62.1,178.1,59,175,55.2,175z"/>
	<path class="st0" d="M20.8,207.7c-3.8,0-6.9,3.1-6.9,6.9v82.7c0,3.8,3.1,6.9,6.9,6.9c3.8,0,6.9-3.1,6.9-6.9v-82.7
		C27.7,210.8,24.6,207.7,20.8,207.7z"/>
	<path class="st0" d="M135.6,175c-3.8,0-6.9,3.1-6.9,6.9v148.1c0,3.8,3.1,6.9,6.9,6.9c3.8,0,6.9-3.1,6.9-6.9V181.9
		C142.5,178.1,139.4,175,135.6,175z"/>
	<path class="st0" d="M170,207.7c-3.8,0-6.9,3.1-6.9,6.9v82.7c0,3.8,3.1,6.9,6.9,6.9c3.8,0,6.9-3.1,6.9-6.9v-82.7
		C176.9,210.8,173.8,207.7,170,207.7z"/>
	<path class="st0" d="M95.4,145.4c-3.8,0-6.9,3.1-6.9,6.9v207.5c0,3.8,3.1,6.9,6.9,6.9c3.8,0,6.9-3.1,6.9-6.9V152.3
		C102.3,148.5,99.2,145.4,95.4,145.4z"/>
</g>
</svg>
