<?xml version="1.0" encoding="utf-8"?>
<!-- Generator: Adobe Illustrator 25.2.1, SVG Export Plug-In . SVG Version: 6.00 Build 0)  -->
<svg version="1.1" id="Warstwa_1" xmlns:svgjs="http://svgjs.com/svgjs"
	 xmlns="http://www.w3.org/2000/svg" xmlns:xlink="http://www.w3.org/1999/xlink" x="0px" y="0px" viewBox="0 0 512 512"
	 style="enable-background:new 0 0 512 512;" xml:space="preserve">
<style type="text/css">
	.st0{fill:#FFFFFF;}
</style>
<g>
	<path class="st0" d="M491.2,219.4c-3.8,0-6.9,3.9-6.9,8.7V284c0,4.8,3.1,8.7,6.9,8.7s6.9-3.9,6.9-8.7V228
		C498.2,223.3,495.1,219.4,491.2,219.4z"/>
	<path class="st0" d="M422.4,219.4c-3.8,0-6.9,3.9-6.9,8.7V284c0,4.8,3.1,8.7,6.9,8.7s6.9-3.9,6.9-8.7V228
		C429.4,223.3,426.3,219.4,422.4,219.4z"/>
	<path class="st0" d="M456.8,180.4c-3.8,0-6.9,3.9-6.9,8.7v133.8c0,4.8,3.1,8.7,6.9,8.7s6.9-3.9,6.9-8.7V189.1
		C463.8,184.3,460.7,180.4,456.8,180.4z"/>
	<path class="st0" d="M204.4,219.4c-3.8,0-6.9,3.9-6.9,8.7V284c0,4.8,3.1,8.7,6.9,8.7c3.8,0,6.9-3.9,6.9-8.7V228
		C211.3,223.3,208.2,219.4,204.4,219.4z"/>
	<path class="st0" d="M353.6,116.7c-3.8,0-6.9,3.9-6.9,8.7v261.3c0,4.8,3.1,8.7,6.9,8.7s6.9-3.9,6.9-8.7V125.4
		C360.6,120.6,357.5,116.7,353.6,116.7z"/>
	<path class="st0" d="M388,144.7c-3.8,0-6.9,3.9-6.9,8.7v205.3c0,4.8,3.1,8.7,6.9,8.7s6.9-3.9,6.9-8.7V153.4
		C395,148.6,391.9,144.7,388,144.7z"/>
	<path class="st0" d="M273.2,116.7c-3.8,0-6.9,3.9-6.9,8.7v261.3c0,4.8,3.1,8.7,6.9,8.7s6.9-3.9,6.9-8.7V125.4
		C280.1,120.6,277,116.7,273.2,116.7z"/>
	<path class="st0" d="M238.8,144.7c-3.8,0-6.9,3.9-6.9,8.7v205.3c0,4.8,3.1,8.7,6.9,8.7s6.9-3.9,6.9-8.7V153.4
		C245.7,148.6,242.6,144.7,238.8,144.7z"/>
	<path class="st0" d="M313.4,56c-3.8,0-6.9,3.9-6.9,8.7v382.6c0,4.8,3.1,8.7,6.9,8.7s6.9-3.9,6.9-8.7V64.7
		C320.3,59.9,317.2,56,313.4,56z"/>
	<path class="st0" d="M55.2,154c-3.8,0-6.9,3.9-6.9,8.7v186.5c0,4.8,3.1,8.7,6.9,8.7c3.8,0,6.9-3.9,6.9-8.7V162.7
		C62.1,157.9,59,154,55.2,154z"/>
	<path class="st0" d="M20.8,195.2c-3.8,0-6.9,3.9-6.9,8.7V308c0,4.8,3.1,8.7,6.9,8.7s6.9-3.9,6.9-8.7V203.9
		C27.7,199.1,24.6,195.2,20.8,195.2z"/>
	<path class="st0" d="M135.6,154c-3.8,0-6.9,3.9-6.9,8.7v186.5c0,4.8,3.1,8.7,6.9,8.7c3.8,0,6.9-3.9,6.9-8.7V162.7
		C142.5,157.9,139.4,154,135.6,154z"/>
	<path class="st0" d="M170,195.2c-3.8,0-6.9,3.9-6.9,8.7V308c0,4.8,3.1,8.7,6.9,8.7c3.8,0,6.9-3.9,6.9-8.7V203.9
		C176.9,199.1,173.8,195.2,170,195.2z"/>
	<path class="st0" d="M95.4,116.7c-3.8,0-6.9,3.9-6.9,8.7v261.3c0,4.8,3.1,8.7,6.9,8.7s6.9-3.9,6.9-8.7V125.4
		C102.3,120.6,99.2,116.7,95.4,116.7z"/>
</g>
</svg>
